<?xml version="1.0" encoding="utf-8"?>
<!-- Generator: Adobe Illustrator 24.3.0, SVG Export Plug-In . SVG Version: 6.00 Build 0)  -->
<svg version="1.1" id="Layer_1" xmlns="http://www.w3.org/2000/svg" xmlns:xlink="http://www.w3.org/1999/xlink" x="0px" y="0px"
	 viewBox="0 0 286.8 152.4" style="enable-background:new 0 0 286.8 152.4;" xml:space="preserve">
<style type="text/css">
	.st0{fill:#FF6B6B;}
	.st1{font-family:'Pacifico-Regular';}
	.st2{font-size:59.0092px;}
	.st3{letter-spacing:-1;}
	.st4{letter-spacing:-8;}
	.st5{fill:#004444;}
	.st6{fill:none;stroke:#C69C6D;stroke-width:5;stroke-linecap:round;stroke-linejoin:round;stroke-miterlimit:10;}
</style>
<text transform="matrix(1 0 0 1 8.0562 126.4829)"><tspan x="0" y="0" class="st0 st1 st2 st3">Y</tspan><tspan x="48.4" y="0" class="st0 st1 st2 st3">u</tspan><tspan x="74.5" y="0" class="st0 st1 st2 st4">m</tspan><tspan x="110.1" y="0" class="st0 st1 st2 st3">Y</tspan><tspan x="158.5" y="0" class="st0 st1 st2 st3">um</tspan><tspan x="227.3" y="0" class="st0 st1 st2">s</tspan></text>
<g>
	<g>
		<path class="st5" d="M24.7,6.5c6.3,0,11.4,1.2,15,3.8c3.5,2.6,5.9,6.7,5.9,12.6c0,13-11.1,18.2-19.5,18.2c-1,0-1.9-0.1-2.4-0.2
			l-6.1-1.6v13.9c0,7.5,0.6,7.6,8.8,8.5v2.5H1.8v-2.5c7.6-0.8,8-1.3,8-8.7V17.8c0-7.9-1-8.1-8-8.8V6.5H24.7z M17.5,36.3
			c1.1,0.5,3.5,1.2,6.5,1.2c5.9,0,13.3-3,13.3-14.2c0-9.8-6.4-13.7-13.9-13.7c-2.6,0-4.4,0.4-5,1.1c-0.7,0.6-1,1.7-1,4.1V36.3z"/>
		<path class="st5" d="M76.4,65.3c-1.3,0-3.3-0.7-4.2-1.7c-1.2-1.2-1.7-2.4-2.1-4c-3.6,2.4-7.9,5.7-10.7,5.7
			c-6.3,0-10.8-5.2-10.8-10.9c0-4.4,2.4-7.2,7.3-8.9c5.4-1.9,12.1-4.2,14-5.8V38c0-6.3-3.2-9.9-7.8-9.9c-2,0-3.3,1-4.2,2
			c-1,1.2-1.6,3.2-2.4,5.8c-0.4,1.4-1.2,2-2.6,2c-1.7,0-3.9-1.8-3.9-3.9c0-1.2,1.2-2.3,2.9-3.6c2.6-1.9,7.7-5.1,12.8-6.2
			c2.7,0,5.4,0.8,7.5,2.4c3.1,2.7,4.5,5.7,4.5,10.3V54c0,4.1,1.5,5.3,3.1,5.3c1.1,0,2.2-0.4,3.2-1l0.9,2.5L76.4,65.3z M69.9,42.8
			c-2,1-6.2,2.8-8.3,3.7c-3.4,1.5-5.4,3.2-5.4,6.5c0,4.7,3.6,6.8,6.4,6.8c2.3,0,5.5-1.4,7.3-3.2C69.9,52.5,69.9,47,69.9,42.8z"/>
		<path class="st5" d="M111.4,64.2v-2.5c5.1-0.5,5.7-1.2,5.7-7.2V39.9c0-6.2-2.2-10.4-8.1-10.4c-3.6,0-7.1,2.1-9.9,4.6v20.8
			c0,6.1,0.5,6.3,5.8,6.8v2.5H85.7v-2.5c5.9-0.6,6.4-1,6.4-6.8V36.6c0-5.8-0.6-6-5.4-6.8v-2.3c4.4-0.7,8.7-1.9,12.4-3.6
			c0,2,0,4.9,0,7c1.8-1.2,3.7-2.6,6-4.1c2.5-1.6,4.8-2.7,7.4-2.7c7.1,0,11.5,5.2,11.5,13.9v16.9c0,6,0.5,6.3,5.7,6.8v2.5H111.4z"/>
		<path class="st5" d="M148.2,64.2c-1.5,0.8-2.9,1.2-3.8,1.2c-5.7,0-8.7-3.5-8.7-10.6V28.9h-6.1l-0.4-1.1l2.4-2.6h4.1v-7.5
			c1.7-1.8,4.3-4.1,5.9-5.9l1.3,0.2c-0.2,3.7-0.3,8.9-0.3,13.1h10.1c0.8,0.9,0.5,2.8-0.5,3.6h-9.6v22.7c0,7.2,2.8,8.5,5.1,8.5
			c2.1,0,4.2-0.8,5.4-1.4l0.8,2.3L148.2,64.2z"/>
		<path class="st5" d="M176.5,64.2H156v-2.5c5.6-0.5,6.1-1,6.1-6.7V36.5c0-5.9-0.4-6.1-5.5-6.7v-2.2c4.4-0.7,8.3-1.8,12.5-3.6
			c0,2.9,0,6.8,0,9.8c3.1-4.6,6.8-9.5,11.3-9.5c3.3,0,5.1,2,5.1,4.3c0,2-1.4,4-3,4.9c-0.9,0.5-1.6,0.4-2.3-0.2
			c-1.3-1.3-2.4-2.2-4-2.2c-1.9,0-5.1,2.8-7.1,7.3v16.7c0,5.9,0.4,6.3,7.3,6.8V64.2z"/>
		<path class="st5" d="M230.7,27.7c-4.6,0.7-5.6,1.4-7.8,6.5c-2.2,5-4.6,11-10.7,26.5c-5.8,14.2-7.4,19.7-8.8,24.3
			c-0.5,1.9-1.5,2.3-2.7,2.3c-2.8,0-5.4-2-5.4-4.3c0-1.2,0.6-2,2-3.1c2.8-2.2,4.9-4.4,5.9-6.6c1.9-3.7,3.2-6.8,3.6-8
			c0.4-1.3,0.4-2.1-0.2-3.6c-3.5-10.1-8.3-21-10.9-27.4c-2-4.9-2.8-5.9-7.6-6.6v-2.4H206v2.4c-4.1,0.6-4.5,1.5-3.4,4.8l8.6,21.8
			c2.5-6.1,6-16,7.9-21.6c1.1-3.4,0.4-4.4-4.7-5.1v-2.4h16.2V27.7z"/>
	</g>
</g>
<path class="st6" d="M253.8,90.8l0.1-31.1c-9.2-2.4-16-10.7-16.1-20.7c0-11.8,9.5-29,21.3-29c11.8,0,21.5,17.1,21.5,28.9
	c0,10-6.8,18.4-16.1,20.8l-0.2,49.1v26.1c0,3.3-2.7,6-6,6h0c-3.3,0-6-2.7-6-6"/>
</svg>
